<mxfile host="app.diagrams.net" agent="Mozilla/5.0 (Windows NT 10.0; Win64; x64; rv:130.0) Gecko/20100101 Firefox/130.0" version="24.7.10" pages="4">
  <diagram name="Page-1" id="C1VMr5BUj2G0ifgSu5-L">
    <mxGraphModel dx="1034" dy="461" grid="1" gridSize="10" guides="1" tooltips="1" connect="1" arrows="1" fold="1" page="1" pageScale="1" pageWidth="850" pageHeight="1100" math="0" shadow="0">
      <root>
        <mxCell id="0" />
        <mxCell id="1" parent="0" />
        <mxCell id="Du6j-Btezk7v5WKTvj2q-21" style="edgeStyle=orthogonalEdgeStyle;rounded=0;orthogonalLoop=1;jettySize=auto;html=1;exitX=1;exitY=0.5;exitDx=0;exitDy=0;entryX=0.5;entryY=0;entryDx=0;entryDy=0;" parent="1" source="Du6j-Btezk7v5WKTvj2q-7" target="Du6j-Btezk7v5WKTvj2q-15" edge="1">
          <mxGeometry relative="1" as="geometry" />
        </mxCell>
        <mxCell id="Du6j-Btezk7v5WKTvj2q-7" value="Main Menu" style="ellipse;whiteSpace=wrap;html=1;direction=south;rotation=0;" parent="1" vertex="1">
          <mxGeometry x="192.5" y="40" width="90" height="50" as="geometry" />
        </mxCell>
        <mxCell id="Du6j-Btezk7v5WKTvj2q-9" value="User" style="shape=parallelogram;perimeter=parallelogramPerimeter;whiteSpace=wrap;html=1;fixedSize=1;fontStyle=1" parent="1" vertex="1">
          <mxGeometry x="20" y="320" width="120" height="60" as="geometry" />
        </mxCell>
        <mxCell id="Du6j-Btezk7v5WKTvj2q-10" value="Admin&amp;nbsp; " style="shape=parallelogram;perimeter=parallelogramPerimeter;whiteSpace=wrap;html=1;fixedSize=1;fontStyle=1" parent="1" vertex="1">
          <mxGeometry x="340" y="320" width="120" height="60" as="geometry" />
        </mxCell>
        <mxCell id="G097dy-HyKlrvWbqDP91-4" style="edgeStyle=orthogonalEdgeStyle;rounded=0;orthogonalLoop=1;jettySize=auto;html=1;exitX=1;exitY=1;exitDx=0;exitDy=0;entryX=0.5;entryY=0;entryDx=0;entryDy=0;" parent="1" source="Du6j-Btezk7v5WKTvj2q-15" target="Du6j-Btezk7v5WKTvj2q-10" edge="1">
          <mxGeometry relative="1" as="geometry" />
        </mxCell>
        <mxCell id="G097dy-HyKlrvWbqDP91-5" style="edgeStyle=orthogonalEdgeStyle;rounded=0;orthogonalLoop=1;jettySize=auto;html=1;exitX=0;exitY=1;exitDx=0;exitDy=0;entryX=0.5;entryY=0;entryDx=0;entryDy=0;" parent="1" source="Du6j-Btezk7v5WKTvj2q-15" target="Du6j-Btezk7v5WKTvj2q-9" edge="1">
          <mxGeometry relative="1" as="geometry" />
        </mxCell>
        <mxCell id="Du6j-Btezk7v5WKTvj2q-15" value="User||Admin" style="rhombus;whiteSpace=wrap;html=1;" parent="1" vertex="1">
          <mxGeometry x="160" y="130" width="155" height="150" as="geometry" />
        </mxCell>
      </root>
    </mxGraphModel>
  </diagram>
  <diagram id="_U1k6zENTANuqs7WfWIu" name="Page-2">
    <mxGraphModel dx="1591" dy="709" grid="1" gridSize="10" guides="1" tooltips="1" connect="1" arrows="1" fold="1" page="1" pageScale="1" pageWidth="1600" pageHeight="900" math="0" shadow="0">
      <root>
        <mxCell id="0" />
        <mxCell id="1" parent="0" />
        <mxCell id="UFQiD4ZjA91Tzr7h166t-5" style="edgeStyle=orthogonalEdgeStyle;rounded=0;orthogonalLoop=1;jettySize=auto;html=1;exitX=1;exitY=0.5;exitDx=0;exitDy=0;entryX=0;entryY=0.5;entryDx=0;entryDy=0;" edge="1" parent="1" source="nuJAXRLBqW1Y_KkSoeWa-1" target="nuJAXRLBqW1Y_KkSoeWa-2">
          <mxGeometry relative="1" as="geometry" />
        </mxCell>
        <mxCell id="UFQiD4ZjA91Tzr7h166t-6" style="edgeStyle=orthogonalEdgeStyle;rounded=0;orthogonalLoop=1;jettySize=auto;html=1;exitX=1;exitY=0.5;exitDx=0;exitDy=0;entryX=0;entryY=0.5;entryDx=0;entryDy=0;" edge="1" parent="1" source="nuJAXRLBqW1Y_KkSoeWa-1" target="nuJAXRLBqW1Y_KkSoeWa-5">
          <mxGeometry relative="1" as="geometry" />
        </mxCell>
        <mxCell id="nuJAXRLBqW1Y_KkSoeWa-1" value="Admin Options" style="shape=parallelogram;perimeter=parallelogramPerimeter;whiteSpace=wrap;html=1;fixedSize=1;" vertex="1" parent="1">
          <mxGeometry x="10" y="330" width="200" height="90" as="geometry" />
        </mxCell>
        <mxCell id="UFQiD4ZjA91Tzr7h166t-1" style="edgeStyle=orthogonalEdgeStyle;rounded=0;orthogonalLoop=1;jettySize=auto;html=1;exitX=1;exitY=0.5;exitDx=0;exitDy=0;entryX=0;entryY=0.5;entryDx=0;entryDy=0;" edge="1" parent="1" source="nuJAXRLBqW1Y_KkSoeWa-2" target="nuJAXRLBqW1Y_KkSoeWa-10">
          <mxGeometry relative="1" as="geometry" />
        </mxCell>
        <mxCell id="UFQiD4ZjA91Tzr7h166t-3" style="edgeStyle=orthogonalEdgeStyle;rounded=0;orthogonalLoop=1;jettySize=auto;html=1;exitX=1;exitY=0.5;exitDx=0;exitDy=0;entryX=0;entryY=0.25;entryDx=0;entryDy=0;" edge="1" parent="1" source="nuJAXRLBqW1Y_KkSoeWa-2" target="nuJAXRLBqW1Y_KkSoeWa-9">
          <mxGeometry relative="1" as="geometry" />
        </mxCell>
        <mxCell id="HwCMp7zNqe4CBVVs4bKv-2" style="edgeStyle=orthogonalEdgeStyle;rounded=0;orthogonalLoop=1;jettySize=auto;html=1;exitX=1;exitY=0.5;exitDx=0;exitDy=0;entryX=0;entryY=0.5;entryDx=0;entryDy=0;" edge="1" parent="1" source="nuJAXRLBqW1Y_KkSoeWa-2" target="HwCMp7zNqe4CBVVs4bKv-1">
          <mxGeometry relative="1" as="geometry" />
        </mxCell>
        <mxCell id="HwCMp7zNqe4CBVVs4bKv-8" style="edgeStyle=orthogonalEdgeStyle;rounded=0;orthogonalLoop=1;jettySize=auto;html=1;exitX=1;exitY=0.5;exitDx=0;exitDy=0;entryX=0;entryY=0.5;entryDx=0;entryDy=0;" edge="1" parent="1" source="nuJAXRLBqW1Y_KkSoeWa-2" target="HwCMp7zNqe4CBVVs4bKv-6">
          <mxGeometry relative="1" as="geometry" />
        </mxCell>
        <mxCell id="HwCMp7zNqe4CBVVs4bKv-9" style="edgeStyle=orthogonalEdgeStyle;rounded=0;orthogonalLoop=1;jettySize=auto;html=1;exitX=1;exitY=0.5;exitDx=0;exitDy=0;entryX=0;entryY=0.5;entryDx=0;entryDy=0;" edge="1" parent="1" source="nuJAXRLBqW1Y_KkSoeWa-2" target="HwCMp7zNqe4CBVVs4bKv-7">
          <mxGeometry relative="1" as="geometry" />
        </mxCell>
        <mxCell id="nuJAXRLBqW1Y_KkSoeWa-2" value="Login" style="rounded=0;whiteSpace=wrap;html=1;" vertex="1" parent="1">
          <mxGeometry x="290" y="240" width="120" height="60" as="geometry" />
        </mxCell>
        <mxCell id="UFQiD4ZjA91Tzr7h166t-7" style="edgeStyle=orthogonalEdgeStyle;rounded=0;orthogonalLoop=1;jettySize=auto;html=1;exitX=0.5;exitY=1;exitDx=0;exitDy=0;entryX=0.5;entryY=0;entryDx=0;entryDy=0;" edge="1" parent="1" source="nuJAXRLBqW1Y_KkSoeWa-5" target="nuJAXRLBqW1Y_KkSoeWa-8">
          <mxGeometry relative="1" as="geometry" />
        </mxCell>
        <mxCell id="nuJAXRLBqW1Y_KkSoeWa-5" value="Logout" style="rounded=0;whiteSpace=wrap;html=1;" vertex="1" parent="1">
          <mxGeometry x="290" y="450" width="120" height="60" as="geometry" />
        </mxCell>
        <mxCell id="nuJAXRLBqW1Y_KkSoeWa-8" value="Main Menu" style="rounded=0;whiteSpace=wrap;html=1;" vertex="1" parent="1">
          <mxGeometry x="290" y="570" width="120" height="60" as="geometry" />
        </mxCell>
        <mxCell id="nuJAXRLBqW1Y_KkSoeWa-9" value="&lt;div&gt;List all &lt;br&gt;&lt;/div&gt;&lt;div&gt;appointments&lt;br&gt;&lt;/div&gt;" style="rounded=0;whiteSpace=wrap;html=1;" vertex="1" parent="1">
          <mxGeometry x="480" y="120" width="120" height="60" as="geometry" />
        </mxCell>
        <mxCell id="UFQiD4ZjA91Tzr7h166t-12" style="edgeStyle=orthogonalEdgeStyle;rounded=0;orthogonalLoop=1;jettySize=auto;html=1;exitX=1;exitY=0.5;exitDx=0;exitDy=0;entryX=0;entryY=0.5;entryDx=0;entryDy=0;" edge="1" parent="1" source="nuJAXRLBqW1Y_KkSoeWa-10" target="UFQiD4ZjA91Tzr7h166t-8">
          <mxGeometry relative="1" as="geometry" />
        </mxCell>
        <mxCell id="UFQiD4ZjA91Tzr7h166t-25" style="edgeStyle=orthogonalEdgeStyle;rounded=0;orthogonalLoop=1;jettySize=auto;html=1;exitX=1;exitY=0.5;exitDx=0;exitDy=0;entryX=0;entryY=0.5;entryDx=0;entryDy=0;" edge="1" parent="1" source="nuJAXRLBqW1Y_KkSoeWa-10" target="UFQiD4ZjA91Tzr7h166t-9">
          <mxGeometry relative="1" as="geometry">
            <Array as="points">
              <mxPoint x="680" y="230" />
            </Array>
          </mxGeometry>
        </mxCell>
        <mxCell id="UFQiD4ZjA91Tzr7h166t-26" style="edgeStyle=orthogonalEdgeStyle;rounded=0;orthogonalLoop=1;jettySize=auto;html=1;exitX=1;exitY=0.5;exitDx=0;exitDy=0;entryX=0;entryY=0.5;entryDx=0;entryDy=0;" edge="1" parent="1" source="nuJAXRLBqW1Y_KkSoeWa-10" target="UFQiD4ZjA91Tzr7h166t-10">
          <mxGeometry relative="1" as="geometry" />
        </mxCell>
        <mxCell id="nuJAXRLBqW1Y_KkSoeWa-10" value="Search Appointments" style="rounded=0;whiteSpace=wrap;html=1;" vertex="1" parent="1">
          <mxGeometry x="480" y="200" width="120" height="60" as="geometry" />
        </mxCell>
        <mxCell id="XJU543446InUS_GTpzwX-3" style="edgeStyle=orthogonalEdgeStyle;rounded=0;orthogonalLoop=1;jettySize=auto;html=1;exitX=1;exitY=0.5;exitDx=0;exitDy=0;" edge="1" parent="1" source="UFQiD4ZjA91Tzr7h166t-8" target="XJU543446InUS_GTpzwX-2">
          <mxGeometry relative="1" as="geometry" />
        </mxCell>
        <mxCell id="UFQiD4ZjA91Tzr7h166t-8" value="By patient&#39;s name" style="rounded=0;whiteSpace=wrap;html=1;" vertex="1" parent="1">
          <mxGeometry x="680" y="20" width="120" height="60" as="geometry" />
        </mxCell>
        <mxCell id="XJU543446InUS_GTpzwX-1" style="edgeStyle=orthogonalEdgeStyle;rounded=0;orthogonalLoop=1;jettySize=auto;html=1;exitX=1;exitY=0.5;exitDx=0;exitDy=0;entryX=0;entryY=0.5;entryDx=0;entryDy=0;" edge="1" parent="1" source="UFQiD4ZjA91Tzr7h166t-9" target="UFQiD4ZjA91Tzr7h166t-28">
          <mxGeometry relative="1" as="geometry" />
        </mxCell>
        <mxCell id="UFQiD4ZjA91Tzr7h166t-9" value="By date" style="rounded=0;whiteSpace=wrap;html=1;" vertex="1" parent="1">
          <mxGeometry x="680" y="200" width="120" height="60" as="geometry" />
        </mxCell>
        <mxCell id="UFQiD4ZjA91Tzr7h166t-20" style="edgeStyle=orthogonalEdgeStyle;rounded=0;orthogonalLoop=1;jettySize=auto;html=1;exitX=1;exitY=0.5;exitDx=0;exitDy=0;entryX=0;entryY=0.5;entryDx=0;entryDy=0;" edge="1" parent="1" source="UFQiD4ZjA91Tzr7h166t-10" target="UFQiD4ZjA91Tzr7h166t-19">
          <mxGeometry relative="1" as="geometry" />
        </mxCell>
        <mxCell id="UFQiD4ZjA91Tzr7h166t-10" value="By doctor&#39;s name" style="rounded=0;whiteSpace=wrap;html=1;" vertex="1" parent="1">
          <mxGeometry x="680" y="390" width="120" height="60" as="geometry" />
        </mxCell>
        <mxCell id="UFQiD4ZjA91Tzr7h166t-19" value="&lt;div&gt;List that doctor&#39;s&lt;/div&gt;&lt;div&gt;appointments&lt;br&gt;&lt;/div&gt;" style="rounded=0;whiteSpace=wrap;html=1;" vertex="1" parent="1">
          <mxGeometry x="870" y="390" width="120" height="60" as="geometry" />
        </mxCell>
        <mxCell id="UFQiD4ZjA91Tzr7h166t-28" value="&lt;div&gt;List all appointments&lt;/div&gt;&lt;div&gt;that day&lt;br&gt;&lt;/div&gt;" style="rounded=0;whiteSpace=wrap;html=1;" vertex="1" parent="1">
          <mxGeometry x="870" y="200" width="120" height="60" as="geometry" />
        </mxCell>
        <mxCell id="HwCMp7zNqe4CBVVs4bKv-1" value="&lt;div&gt;Input Doctors&#39;&lt;/div&gt;&lt;div&gt;Information&lt;br&gt;&lt;/div&gt;" style="rounded=0;whiteSpace=wrap;html=1;" vertex="1" parent="1">
          <mxGeometry x="480" y="280" width="120" height="60" as="geometry" />
        </mxCell>
        <mxCell id="HwCMp7zNqe4CBVVs4bKv-6" value="&lt;div&gt;Update Doctor&#39;s &lt;br&gt;&lt;/div&gt;&lt;div&gt;Info&lt;br&gt;&lt;/div&gt;" style="rounded=0;whiteSpace=wrap;html=1;" vertex="1" parent="1">
          <mxGeometry x="480" y="360" width="120" height="60" as="geometry" />
        </mxCell>
        <mxCell id="HwCMp7zNqe4CBVVs4bKv-7" value="Delete Doctor" style="rounded=0;whiteSpace=wrap;html=1;" vertex="1" parent="1">
          <mxGeometry x="480" y="440" width="120" height="60" as="geometry" />
        </mxCell>
        <mxCell id="XJU543446InUS_GTpzwX-2" value="&lt;div&gt;List patient&#39;s &lt;br&gt;&lt;/div&gt;&lt;div&gt;appointment&lt;br&gt;&lt;/div&gt;" style="rounded=0;whiteSpace=wrap;html=1;" vertex="1" parent="1">
          <mxGeometry x="860" y="20" width="120" height="60" as="geometry" />
        </mxCell>
      </root>
    </mxGraphModel>
  </diagram>
  <diagram id="qSkvjc7dOWOD4vo8a8KJ" name="Page-4">
    <mxGraphModel dx="1477" dy="591" grid="1" gridSize="10" guides="1" tooltips="1" connect="1" arrows="1" fold="1" page="1" pageScale="1" pageWidth="1600" pageHeight="900" math="0" shadow="0">
      <root>
        <mxCell id="0" />
        <mxCell id="1" parent="0" />
        <mxCell id="V54t3vg8CV8zopch26rS-5" style="edgeStyle=orthogonalEdgeStyle;rounded=0;orthogonalLoop=1;jettySize=auto;html=1;exitX=0.5;exitY=0;exitDx=0;exitDy=0;entryX=0;entryY=0.5;entryDx=0;entryDy=0;" edge="1" parent="1" source="V54t3vg8CV8zopch26rS-1" target="V54t3vg8CV8zopch26rS-2">
          <mxGeometry relative="1" as="geometry" />
        </mxCell>
        <mxCell id="V54t3vg8CV8zopch26rS-7" style="edgeStyle=orthogonalEdgeStyle;rounded=0;orthogonalLoop=1;jettySize=auto;html=1;exitX=1;exitY=0.5;exitDx=0;exitDy=0;entryX=0;entryY=0.5;entryDx=0;entryDy=0;" edge="1" parent="1" source="V54t3vg8CV8zopch26rS-1" target="V54t3vg8CV8zopch26rS-3">
          <mxGeometry relative="1" as="geometry" />
        </mxCell>
        <mxCell id="V54t3vg8CV8zopch26rS-8" style="edgeStyle=orthogonalEdgeStyle;rounded=0;orthogonalLoop=1;jettySize=auto;html=1;exitX=0.5;exitY=1;exitDx=0;exitDy=0;entryX=0;entryY=0.5;entryDx=0;entryDy=0;" edge="1" parent="1" source="V54t3vg8CV8zopch26rS-1" target="V54t3vg8CV8zopch26rS-4">
          <mxGeometry relative="1" as="geometry" />
        </mxCell>
        <mxCell id="V54t3vg8CV8zopch26rS-1" value="User" style="shape=parallelogram;perimeter=parallelogramPerimeter;whiteSpace=wrap;html=1;fixedSize=1;" vertex="1" parent="1">
          <mxGeometry x="10" y="290" width="120" height="60" as="geometry" />
        </mxCell>
        <mxCell id="V54t3vg8CV8zopch26rS-16" style="edgeStyle=orthogonalEdgeStyle;rounded=0;orthogonalLoop=1;jettySize=auto;html=1;exitX=0.5;exitY=0;exitDx=0;exitDy=0;entryX=0.5;entryY=1;entryDx=0;entryDy=0;" edge="1" parent="1" source="V54t3vg8CV8zopch26rS-2" target="V54t3vg8CV8zopch26rS-13">
          <mxGeometry relative="1" as="geometry" />
        </mxCell>
        <mxCell id="V54t3vg8CV8zopch26rS-2" value="Register(Name, Age, Gender, Address, Phone #)" style="rounded=0;whiteSpace=wrap;html=1;" vertex="1" parent="1">
          <mxGeometry x="160" y="210" width="120" height="60" as="geometry" />
        </mxCell>
        <mxCell id="V54t3vg8CV8zopch26rS-12" style="edgeStyle=orthogonalEdgeStyle;rounded=0;orthogonalLoop=1;jettySize=auto;html=1;exitX=1;exitY=0.5;exitDx=0;exitDy=0;entryX=0;entryY=0.5;entryDx=0;entryDy=0;" edge="1" parent="1" source="V54t3vg8CV8zopch26rS-3" target="V54t3vg8CV8zopch26rS-11">
          <mxGeometry relative="1" as="geometry" />
        </mxCell>
        <mxCell id="V54t3vg8CV8zopch26rS-3" value="Login" style="rounded=0;whiteSpace=wrap;html=1;" vertex="1" parent="1">
          <mxGeometry x="160" y="290" width="120" height="60" as="geometry" />
        </mxCell>
        <mxCell id="V54t3vg8CV8zopch26rS-10" style="edgeStyle=orthogonalEdgeStyle;rounded=0;orthogonalLoop=1;jettySize=auto;html=1;exitX=0.5;exitY=1;exitDx=0;exitDy=0;entryX=0.5;entryY=0;entryDx=0;entryDy=0;" edge="1" parent="1" source="V54t3vg8CV8zopch26rS-4" target="V54t3vg8CV8zopch26rS-9">
          <mxGeometry relative="1" as="geometry" />
        </mxCell>
        <mxCell id="V54t3vg8CV8zopch26rS-4" value="Logout" style="rounded=0;whiteSpace=wrap;html=1;" vertex="1" parent="1">
          <mxGeometry x="160" y="370" width="120" height="60" as="geometry" />
        </mxCell>
        <mxCell id="V54t3vg8CV8zopch26rS-9" value="Main Menu" style="ellipse;whiteSpace=wrap;html=1;" vertex="1" parent="1">
          <mxGeometry x="160" y="450" width="120" height="80" as="geometry" />
        </mxCell>
        <mxCell id="V54t3vg8CV8zopch26rS-33" style="edgeStyle=orthogonalEdgeStyle;rounded=0;orthogonalLoop=1;jettySize=auto;html=1;exitX=1;exitY=0.5;exitDx=0;exitDy=0;entryX=0;entryY=0.5;entryDx=0;entryDy=0;" edge="1" parent="1" source="V54t3vg8CV8zopch26rS-11" target="V54t3vg8CV8zopch26rS-19">
          <mxGeometry relative="1" as="geometry" />
        </mxCell>
        <mxCell id="V54t3vg8CV8zopch26rS-34" style="edgeStyle=orthogonalEdgeStyle;rounded=0;orthogonalLoop=1;jettySize=auto;html=1;exitX=1;exitY=0.5;exitDx=0;exitDy=0;entryX=0;entryY=0.5;entryDx=0;entryDy=0;" edge="1" parent="1" source="V54t3vg8CV8zopch26rS-11" target="V54t3vg8CV8zopch26rS-20">
          <mxGeometry relative="1" as="geometry">
            <Array as="points">
              <mxPoint x="490" y="320" />
            </Array>
          </mxGeometry>
        </mxCell>
        <mxCell id="V54t3vg8CV8zopch26rS-35" style="edgeStyle=orthogonalEdgeStyle;rounded=0;orthogonalLoop=1;jettySize=auto;html=1;exitX=1;exitY=0.5;exitDx=0;exitDy=0;entryX=0;entryY=0.5;entryDx=0;entryDy=0;" edge="1" parent="1" source="V54t3vg8CV8zopch26rS-11" target="V54t3vg8CV8zopch26rS-18">
          <mxGeometry relative="1" as="geometry" />
        </mxCell>
        <mxCell id="V54t3vg8CV8zopch26rS-37" style="edgeStyle=orthogonalEdgeStyle;rounded=0;orthogonalLoop=1;jettySize=auto;html=1;exitX=1;exitY=0.5;exitDx=0;exitDy=0;entryX=0;entryY=0.5;entryDx=0;entryDy=0;" edge="1" parent="1" source="V54t3vg8CV8zopch26rS-11" target="V54t3vg8CV8zopch26rS-22">
          <mxGeometry relative="1" as="geometry" />
        </mxCell>
        <mxCell id="V54t3vg8CV8zopch26rS-38" style="edgeStyle=orthogonalEdgeStyle;rounded=0;orthogonalLoop=1;jettySize=auto;html=1;exitX=1;exitY=0.5;exitDx=0;exitDy=0;entryX=0;entryY=0.5;entryDx=0;entryDy=0;" edge="1" parent="1" source="V54t3vg8CV8zopch26rS-11" target="V54t3vg8CV8zopch26rS-17">
          <mxGeometry relative="1" as="geometry" />
        </mxCell>
        <mxCell id="V54t3vg8CV8zopch26rS-11" value="Username, Pwd" style="rounded=0;whiteSpace=wrap;html=1;" vertex="1" parent="1">
          <mxGeometry x="310" y="290" width="120" height="60" as="geometry" />
        </mxCell>
        <mxCell id="V54t3vg8CV8zopch26rS-15" style="edgeStyle=orthogonalEdgeStyle;rounded=0;orthogonalLoop=1;jettySize=auto;html=1;exitX=0;exitY=0.5;exitDx=0;exitDy=0;entryX=0;entryY=0.5;entryDx=0;entryDy=0;" edge="1" parent="1" source="V54t3vg8CV8zopch26rS-13" target="V54t3vg8CV8zopch26rS-1">
          <mxGeometry relative="1" as="geometry" />
        </mxCell>
        <mxCell id="V54t3vg8CV8zopch26rS-13" value="&lt;div&gt;Make your own&lt;/div&gt;&lt;div&gt;username, pwd&lt;br&gt;&lt;/div&gt;" style="rounded=0;whiteSpace=wrap;html=1;" vertex="1" parent="1">
          <mxGeometry x="160" y="130" width="120" height="60" as="geometry" />
        </mxCell>
        <mxCell id="V54t3vg8CV8zopch26rS-28" style="edgeStyle=orthogonalEdgeStyle;rounded=0;orthogonalLoop=1;jettySize=auto;html=1;exitX=1;exitY=0.5;exitDx=0;exitDy=0;" edge="1" parent="1" source="V54t3vg8CV8zopch26rS-17" target="V54t3vg8CV8zopch26rS-25">
          <mxGeometry relative="1" as="geometry" />
        </mxCell>
        <mxCell id="V54t3vg8CV8zopch26rS-17" value="Book Appointments" style="rounded=0;whiteSpace=wrap;html=1;" vertex="1" parent="1">
          <mxGeometry x="490" y="115" width="120" height="60" as="geometry" />
        </mxCell>
        <mxCell id="V54t3vg8CV8zopch26rS-18" value="Delete booked appointment" style="rounded=0;whiteSpace=wrap;html=1;" vertex="1" parent="1">
          <mxGeometry x="490" y="385" width="120" height="60" as="geometry" />
        </mxCell>
        <mxCell id="V54t3vg8CV8zopch26rS-19" value="Display booked appointment" style="rounded=0;whiteSpace=wrap;html=1;" vertex="1" parent="1">
          <mxGeometry x="490" y="205" width="120" height="60" as="geometry" />
        </mxCell>
        <mxCell id="V54t3vg8CV8zopch26rS-20" value="&lt;div&gt;Update booked appointment&lt;/div&gt;" style="rounded=0;whiteSpace=wrap;html=1;" vertex="1" parent="1">
          <mxGeometry x="490" y="290" width="120" height="60" as="geometry" />
        </mxCell>
        <mxCell id="V54t3vg8CV8zopch26rS-22" value="Exit" style="rounded=0;whiteSpace=wrap;html=1;" vertex="1" parent="1">
          <mxGeometry x="490" y="465" width="120" height="60" as="geometry" />
        </mxCell>
        <mxCell id="V54t3vg8CV8zopch26rS-29" style="edgeStyle=orthogonalEdgeStyle;rounded=0;orthogonalLoop=1;jettySize=auto;html=1;exitX=1;exitY=0.5;exitDx=0;exitDy=0;entryX=0;entryY=0.5;entryDx=0;entryDy=0;" edge="1" parent="1" source="V54t3vg8CV8zopch26rS-25" target="V54t3vg8CV8zopch26rS-26">
          <mxGeometry relative="1" as="geometry" />
        </mxCell>
        <mxCell id="V54t3vg8CV8zopch26rS-25" value="Choose Doctor" style="rounded=0;whiteSpace=wrap;html=1;" vertex="1" parent="1">
          <mxGeometry x="680" y="115" width="120" height="60" as="geometry" />
        </mxCell>
        <mxCell id="V54t3vg8CV8zopch26rS-30" style="edgeStyle=orthogonalEdgeStyle;rounded=0;orthogonalLoop=1;jettySize=auto;html=1;exitX=1;exitY=0.5;exitDx=0;exitDy=0;" edge="1" parent="1" source="V54t3vg8CV8zopch26rS-26" target="V54t3vg8CV8zopch26rS-27">
          <mxGeometry relative="1" as="geometry" />
        </mxCell>
        <mxCell id="V54t3vg8CV8zopch26rS-26" value="Reason" style="rounded=0;whiteSpace=wrap;html=1;" vertex="1" parent="1">
          <mxGeometry x="870" y="115" width="120" height="60" as="geometry" />
        </mxCell>
        <mxCell id="V54t3vg8CV8zopch26rS-27" value="Choose Date" style="rounded=0;whiteSpace=wrap;html=1;" vertex="1" parent="1">
          <mxGeometry x="1050" y="115" width="120" height="60" as="geometry" />
        </mxCell>
        <mxCell id="V54t3vg8CV8zopch26rS-32" style="edgeStyle=orthogonalEdgeStyle;rounded=0;orthogonalLoop=1;jettySize=auto;html=1;exitX=1;exitY=0.5;exitDx=0;exitDy=0;entryX=0.44;entryY=-0.043;entryDx=0;entryDy=0;entryPerimeter=0;" edge="1" parent="1" source="V54t3vg8CV8zopch26rS-27" target="V54t3vg8CV8zopch26rS-11">
          <mxGeometry relative="1" as="geometry">
            <Array as="points">
              <mxPoint x="1190" y="145" />
              <mxPoint x="1190" y="60" />
              <mxPoint x="363" y="60" />
            </Array>
          </mxGeometry>
        </mxCell>
      </root>
    </mxGraphModel>
  </diagram>
  <diagram id="nStGkCir1Sh55TDUixNU" name="Page-3">
    <mxGraphModel dx="1149" dy="512" grid="1" gridSize="10" guides="1" tooltips="1" connect="1" arrows="1" fold="1" page="1" pageScale="1" pageWidth="1600" pageHeight="900" math="0" shadow="0">
      <root>
        <mxCell id="0" />
        <mxCell id="1" parent="0" />
        <mxCell id="4X-aiIcdnawKfToxsXvR-2" value="Login" style="rounded=0;whiteSpace=wrap;html=1;" vertex="1" parent="1">
          <mxGeometry x="160" y="310" width="120" height="60" as="geometry" />
        </mxCell>
        <mxCell id="4rshAfCvKX-UyIKm3HHq-1" value="Doctor&#39;s Options" style="shape=parallelogram;perimeter=parallelogramPerimeter;whiteSpace=wrap;html=1;fixedSize=1;" vertex="1" parent="1">
          <mxGeometry x="10" y="370" width="120" height="60" as="geometry" />
        </mxCell>
        <mxCell id="QehVIJXxfeOU9j73r0or-1" value="Logout" style="rounded=0;whiteSpace=wrap;html=1;" vertex="1" parent="1">
          <mxGeometry x="160" y="420" width="120" height="60" as="geometry" />
        </mxCell>
        <mxCell id="QehVIJXxfeOU9j73r0or-2" value="Display appointments" style="rounded=0;whiteSpace=wrap;html=1;" vertex="1" parent="1">
          <mxGeometry x="320" y="310" width="120" height="60" as="geometry" />
        </mxCell>
        <mxCell id="QehVIJXxfeOU9j73r0or-3" value="Update" style="rounded=0;whiteSpace=wrap;html=1;" vertex="1" parent="1">
          <mxGeometry x="470" y="220" width="120" height="60" as="geometry" />
        </mxCell>
        <mxCell id="QehVIJXxfeOU9j73r0or-4" value="Delete" style="rounded=0;whiteSpace=wrap;html=1;" vertex="1" parent="1">
          <mxGeometry x="470" y="360" width="120" height="60" as="geometry" />
        </mxCell>
      </root>
    </mxGraphModel>
  </diagram>
</mxfile>
